# xmcd CD database file
#
# Track frame offsets:
#	150
#	40435
#	84504
#	136817
#	171092
#	208112
#	241625
#
# Disc length: 4052 seconds
#
# Revision: 0
# Processed by: cddbd v1.5.2PL0 Copyright (c) Steve Scherf et al.
# Submitted via: CDex 1.77
#
DISCID=550fd207
DTITLE=AA.VV. - Yoga fo your mind and for your body
DYEAR=2010
DGENRE=New Age
TTITLE0=Visible and invisible
TTITLE1=Cosmic fragments
TTITLE2=Rhythm of a vision
TTITLE3=Mantra
TTITLE4=Purification
TTITLE5=Voices
TTITLE6=Sound of Anahata
EXTD=YEAR: 2010
EXTT0=
EXTT1=
EXTT2=
EXTT3=
EXTT4=
EXTT5=
EXTT6=
PLAYORDER=
